<svg xmlns="http://www.w3.org/2000/svg" viewBox="0 0 512 512">
  <defs>
    <!-- Dark Forest Glass Background -->
    <linearGradient id="bgGrad" x1="0%" y1="0%" x2="100%" y2="100%">
      <stop offset="0%" stop-color="#040d08" />
      <stop offset="100%" stop-color="#0a1c12" />
    </linearGradient>

    <!-- Glowing Emerald for Aura Leaves -->
    <linearGradient id="auraGrad1" x1="0%" y1="100%" x2="100%" y2="0%">
      <stop offset="0%" stop-color="#059669" />
      <stop offset="100%" stop-color="#34d399" />
    </linearGradient>
    
    <linearGradient id="auraGrad2" x1="100%" y1="100%" x2="0%" y2="0%">
      <stop offset="0%" stop-color="#047857" />
      <stop offset="100%" stop-color="#10b981" />
    </linearGradient>

    <!-- Luxury Golden Neural Gradient -->
    <linearGradient id="goldTech" x1="0%" y1="0%" x2="100%" y2="100%">
      <stop offset="0%" stop-color="#fff5db" />
      <stop offset="50%" stop-color="#d4b459" />
      <stop offset="100%" stop-color="#8a611c" />
    </linearGradient>

    <!-- Filters for ambient light blending (Apple UI feel) -->
    <filter id="superGlow" x="-50%" y="-50%" width="200%" height="200%">
      <feGaussianBlur stdDeviation="24" result="blur" />
      <feComposite in="SourceGraphic" in2="blur" operator="over" />
    </filter>

    <filter id="softGlow" x="-20%" y="-20%" width="140%" height="140%">
      <feGaussianBlur stdDeviation="8" result="blur" />
      <feComposite in="SourceGraphic" in2="blur" operator="over" />
    </filter>

    <filter id="glassmorphism">
      <feGaussianBlur stdDeviation="12" result="blur"/>
      <feColorMatrix type="matrix" values="1 0 0 0 0  0 1 0 0 0  0 0 1 0 0  0 0 0 18 -7" result="glow"/>
      <feBlend in="SourceGraphic" in2="glow" mode="normal"/>
    </filter>

    <!-- Core Neem Leaf Shape used everywhere -->
    <path id="neem" d="M 140 400 C 100 240, 240 180, 420 80 C 370 240, 240 320, 140 400 Z" />
  </defs>

  <rect width="512" height="512" rx="110" fill="url(#bgGrad)" stroke="rgba(52,211,153, 0.15)" stroke-width="2" />

  <g transform="translate(10, -10)">
    
    <!-- Deep Aura Leaf (Left/Background) -->
    <g transform="translate(-30, 40) rotate(-15 256 256)" filter="url(#superGlow)" opacity="0.4">
      <use href="#neem" fill="url(#auraGrad1)" />
    </g>

    <!-- High Aura Leaf (Right/Background) -->
    <g transform="translate(30, -20) rotate(15 256 256)" filter="url(#superGlow)" opacity="0.3">
      <use href="#neem" fill="url(#auraGrad2)" />
    </g>

    <!-- Central Hero Bio-Digital Glass Neem Leaf -->
    <g filter="url(#softGlow)">
      <!-- Glass membrane -->
      <use href="#neem" fill="rgba(6, 78, 59, 0.6)" stroke="url(#auraGrad1)" stroke-width="3" filter="url(#glassmorphism)"/>
      
      <!-- Central Golden Spine (Biological vein meets fiber optic cable) -->
      <path d="M 140 400 Q 250 240 420 80" stroke="url(#goldTech)" stroke-width="5" fill="none" stroke-linecap="round"/>

      <!-- Neural Grid mapped onto the leaf geometry! -->
      
      <!-- Node Intersection 1 -->
      <path d="M 183 325 L 140 280 M 183 325 L 245 340 M 183 325 L 140 400" stroke="url(#goldTech)" stroke-width="2.5" opacity="0.8" stroke-linecap="round"/>
      <circle cx="183" cy="325" r="7" fill="url(#goldTech)" filter="url(#softGlow)"/>
      <circle cx="140" cy="280" r="4" fill="url(#goldTech)" />
      <circle cx="245" cy="340" r="5" fill="url(#goldTech)" opacity="0.8"/>

      <!-- Node Intersection 2 (Core Processing Node) -->
      <path d="M 235 245 L 180 185 M 235 245 L 315 265 M 235 245 L 260 170" stroke="url(#goldTech)" stroke-width="2.5" opacity="0.8" stroke-linecap="round"/>
      <circle cx="235" cy="245" r="9" fill="#fff" filter="url(#softGlow)"/>
      <circle cx="235" cy="245" r="11" fill="none" stroke="url(#goldTech)" stroke-width="2"/>
      <circle cx="180" cy="185" r="5" fill="url(#goldTech)" />
      <circle cx="315" cy="265" r="6" fill="url(#goldTech)" />
      <circle cx="260" cy="170" r="4" fill="url(#goldTech)" />

      <!-- Node Intersection 3 -->
      <path d="M 300 165 L 280 110 M 300 165 L 360 185 M 360 185 L 340 120" stroke="url(#goldTech)" stroke-width="2.5" opacity="0.8" stroke-linecap="round"/>
      <circle cx="300" cy="165" r="6" fill="url(#goldTech)" filter="url(#softGlow)"/>
      <circle cx="280" cy="110" r="4" fill="url(#goldTech)" />
      <circle cx="360" cy="185" r="5" fill="url(#goldTech)" />
      <circle cx="340" cy="120" r="3" fill="url(#goldTech)" />
      
      <!-- Connective micro-data lines -->
      <path d="M 180 185 L 140 280 M 315 265 L 360 185" stroke="rgba(212,180,89, 0.4)" stroke-width="1.5" stroke-dasharray="2 4"/>
    </g>

    <!-- Sparkle geometry reflecting off the glass edge -->
    <path d="M 390 130 L 392 110 L 412 108 L 392 106 L 390 86 L 388 106 L 368 108 L 388 110 Z" fill="#fff" filter="url(#softGlow)" opacity="0.9"/>
    
  </g>
</svg>
